<?xml version="1.0" encoding="UTF-8"?>
<!-- Generator: Adobe Illustrator 15.0.2, SVG Export Plug-In . SVG Version: 6.00 Build 0)  -->
<!DOCTYPE svg PUBLIC "-//W3C//DTD SVG 1.1//EN" "http://www.w3.org/Graphics/SVG/1.1/DTD/svg11.dtd">
<svg version="1.1" id="" xmlns="http://www.w3.org/2000/svg" xmlns:xlink="http://www.w3.org/1999/xlink" x="0px" y="0px" width="300px" height="300px" viewBox="0 0 300 300" enable-background="new 0 0 300 300" xml:space="preserve">
	<defs>
		<style>
			.fill_1 { fill: #00c300; }
			.fill_2 { fill: #ffffff; }
		</style>
	</defs>
	<path class="fill_1" d="M267.841,203.837h0.009c-31.466,36.329-101.836,80.575-117.848,87.339c-16.008,6.764-13.645-4.307-12.991-8.101   c0.382-2.271,2.139-12.89,2.139-12.89c0.507-3.844,1.029-9.795-0.486-13.589c-1.686-4.182-8.332-6.373-13.215-7.422   C53.366,239.621,0,189.073,0,128.74C0,61.439,67.298,6.682,150.002,6.682C232.715,6.682,300,61.439,300,128.74   C300,155.681,289.59,179.944,267.841,203.837z"/>
	<path class="fill_2" d="M241.895,123.125c4.334,0,7.854,3.532,7.854,7.89c0,4.342-3.521,7.884-7.854,7.884H219.98v14.105h21.914   c4.321,0,7.854,3.54,7.854,7.886c0,4.357-3.533,7.894-7.854,7.894h-29.778c-4.325,0-7.856-3.535-7.856-7.894v-29.856   c0-0.009,0-0.009,0-0.019c0,0,0-0.016,0-0.021v-29.838c0-0.02,0-0.027,0-0.035c0-4.342,3.527-7.89,7.856-7.89h29.778   c4.334,0,7.854,3.547,7.854,7.89c0,4.354-3.521,7.894-7.854,7.894H219.98v14.11H241.895z M193.715,160.89   c0,3.409-2.154,6.416-5.373,7.487c-0.807,0.272-1.652,0.405-2.492,0.405c-2.455,0-4.801-1.174-6.276-3.159l-30.52-41.702v36.969   c0,4.357-3.519,7.894-7.855,7.894c-4.333,0-7.859-3.535-7.859-7.894v-59.769c0-3.396,2.164-6.4,5.376-7.481   c0.807-0.269,1.646-0.408,2.491-0.408c2.45,0,4.805,1.179,6.274,3.163L178,138.113v-36.991c0-4.342,3.525-7.89,7.857-7.89   c4.336,0,7.856,3.547,7.856,7.89L193.715,160.89L193.715,160.89z M122.038,160.89c0,4.357-3.521,7.894-7.851,7.894   c-4.331,0-7.853-3.535-7.853-7.894v-59.769c0-4.342,3.522-7.89,7.853-7.89c4.33,0,7.851,3.547,7.851,7.89V160.89z M91.245,168.782   H61.47c-4.325,0-7.85-3.535-7.85-7.894v-59.768c0-4.342,3.524-7.89,7.85-7.89c4.336,0,7.854,3.547,7.854,7.89v51.883h21.92   c4.338,0,7.855,3.54,7.855,7.886C99.1,165.247,95.583,168.782,91.245,168.782z"/>
</svg>